<svg width="222" height="32" viewBox="0 0 222 32" fill="none" xmlns="http://www.w3.org/2000/svg">
<path d="M27.1143 0L32 7.44734L24.0896 19.5121L19.0961 12.1103L27.1143 0Z" fill="url(#paint0_linear_80_318)"/>
<path d="M0 7.45095L4.85336 0.0110031L12.8738 12.1066L7.9616 19.5053L0 7.45095Z" fill="url(#paint1_linear_80_318)"/>
<path d="M15.9819 32L10.9618 24.3613L15.9819 16.7912L20.9973 24.3632L15.9819 32Z" fill="url(#paint2_linear_80_318)"/>
<path d="M121.982 17.5361L115.262 5.34408H111.198L119.966 21.1841L121.982 17.5361Z" fill="url(#paint3_linear_80_318)"/>
<path d="M134.814 5.34408H130.782L123.006 19.3601L120.99 23.0081L123.006 26.6561L125.022 23.0081L134.814 5.34408Z" fill="url(#paint4_linear_80_318)"/>
<path d="M64.6979 26.6561V11.8721L67.7699 14.9441V26.6561H64.6979Z" fill="url(#paint5_linear_80_318)"/>
<path d="M78.5219 5.40807H81.5619V26.5601L64.6979 9.69608V5.37608L78.5219 19.1681V5.40807Z" fill="url(#paint6_linear_80_318)"/>
<path d="M58.5707 5.40807H61.6107V18.9441C61.6107 20.5441 61.0347 22.1121 59.9467 23.2641C59.5307 23.7441 59.0507 24.1601 58.5707 24.5121C56.7787 25.8881 54.5707 26.6561 52.1387 26.6561C49.7387 26.6561 47.5307 25.8561 45.7387 24.5121C45.2267 24.1281 44.7787 23.7121 44.3307 23.2641C43.2427 22.0801 42.6667 20.5121 42.6667 18.9121V5.40807H45.7387V17.1521C45.7387 20.6081 48.4587 23.4881 51.9147 23.6161H52.3627C55.8507 23.4881 58.5707 20.6081 58.5707 17.1521V5.40807Z" fill="url(#paint7_linear_80_318)"/>
<path d="M87.6114 26.5601V5.47207H84.7314V26.5601H87.6114Z" fill="url(#paint8_linear_80_318)"/>
<path fill-rule="evenodd" clip-rule="evenodd" d="M109.416 23.0081C109.096 23.3921 108.744 23.7441 108.36 24.0641L110.92 26.6561H101.384C95.5284 26.6561 90.7604 21.9201 90.7604 16.0321C90.7604 10.1761 95.5284 5.40807 101.384 5.40807C107.272 5.40807 112.008 10.1761 112.008 16.0321C112.008 18.7201 111.048 21.1201 109.416 23.0081ZM104.872 22.7521C105.32 22.5281 105.768 22.2401 106.184 21.8881C106.568 21.5681 106.92 21.2161 107.24 20.8321C108.328 19.5201 108.968 17.8561 108.968 16.0321C108.968 11.8721 105.576 8.48008 101.384 8.48008C97.2244 8.48008 93.8324 11.8721 93.8324 16.0321C93.8324 20.2241 97.2244 23.6161 101.384 23.6161C102.056 23.6161 102.696 23.5201 103.304 23.3601C103.848 23.2321 104.36 23.0081 104.872 22.7521Z" fill="url(#paint9_linear_80_318)"/>
<path d="M140.559 16.8001V23.6161H156.303V26.6561H137.487V10.0161H140.559V13.7281H154.223V16.8001H140.559Z" fill="url(#paint10_linear_80_318)"/>
<path d="M137.487 5.40807H156.303V8.48008H137.487V5.40807Z" fill="url(#paint11_linear_80_318)"/>
<path fill-rule="evenodd" clip-rule="evenodd" d="M179.161 26.6561L172.473 15.6801L172.089 15.1041C172.102 15.0919 172.114 15.0843 172.124 15.0778C172.141 15.0674 172.153 15.0599 172.153 15.0401H172.185C172.249 15.0081 172.313 14.9761 172.345 14.9121H172.377C172.409 14.8801 172.473 14.8481 172.537 14.8161C172.665 14.7201 172.793 14.624 172.889 14.5281C172.921 14.5281 172.953 14.4961 172.985 14.4641C173.049 14.4321 173.081 14.4001 173.113 14.3681C173.177 14.3041 173.241 14.2401 173.305 14.2081L173.337 14.1761C173.341 14.172 173.346 14.1679 173.351 14.1637C173.358 14.1582 173.365 14.1526 173.373 14.1467C173.404 14.1223 173.443 14.0927 173.465 14.0481C173.625 13.9521 173.753 13.8241 173.881 13.6641C175.321 12.2561 176.345 10.4641 176.793 8.41607C176.953 7.68007 177.049 6.91207 177.049 6.11208C177.049 5.85607 177.049 5.60007 177.017 5.34408H159.385V26.6561H162.457V16.7361H166.969C167.033 16.7361 167.129 16.7361 167.225 16.7041H167.481C167.545 16.6721 167.641 16.6721 167.705 16.6721C167.737 16.6721 167.769 16.6721 167.801 16.6401H167.993C168.025 16.6081 168.057 16.6081 168.089 16.6081C168.121 16.6081 168.185 16.6081 168.249 16.5761C168.409 16.5441 168.601 16.5121 168.793 16.4801C168.825 16.4641 168.865 16.4561 168.905 16.4481C168.945 16.4401 168.985 16.4321 169.017 16.4161H169.081C169.113 16.4001 169.137 16.3921 169.161 16.3841C169.185 16.3761 169.209 16.3681 169.241 16.3521H169.273L169.465 16.6401L175.577 26.6561H179.161ZM171.737 11.4881C171.033 12.1601 170.265 12.7041 169.401 13.0561C168.473 13.4721 167.449 13.6641 166.393 13.6641H162.457V8.41607H173.625C173.241 9.56808 172.601 10.6241 171.737 11.4881Z" fill="url(#paint12_linear_80_318)"/>
<path d="M193.183 14.4961C195.455 14.4961 197.439 15.7441 198.495 17.5681C198.975 18.4641 199.295 19.4881 199.295 20.5761C199.295 21.6961 198.975 22.7201 198.495 23.6161C197.439 25.4401 195.455 26.6561 193.183 26.6561H186.591C184.319 26.6561 182.335 25.4401 181.279 23.6161C180.799 22.7521 180.511 21.7921 180.479 20.7361H183.551C183.647 22.3361 184.959 23.6161 186.591 23.6161H193.183C194.847 23.6161 196.223 22.2401 196.223 20.5761C196.223 18.9121 194.847 17.5681 193.183 17.5681H186.559C184.863 17.5681 183.295 16.8641 182.207 15.7121C181.855 15.3601 181.535 14.9441 181.279 14.4961C180.767 13.6321 180.479 12.5761 180.479 11.4881C180.479 10.4001 180.767 9.37608 181.279 8.48008C182.335 6.65608 184.319 5.40807 186.559 5.40807H193.343C195.551 5.47207 197.439 6.68808 198.463 8.48008H198.495C198.975 9.31207 199.263 10.3041 199.295 11.3281H196.223C196.127 9.76008 194.879 8.54408 193.311 8.48008H186.559C184.895 8.48008 183.551 9.82408 183.551 11.4881C183.551 13.0561 184.735 14.3361 186.271 14.4961H193.183Z" fill="url(#paint13_linear_80_318)"/>
<path d="M205.747 23.6161V16.8001H219.411V13.7281H205.747V10.0161H202.675V26.6561H221.491V23.6161H205.747Z" fill="url(#paint14_linear_80_318)"/>
<path d="M221.491 5.40807H202.675V8.48008H221.491V5.40807Z" fill="url(#paint15_linear_80_318)"/>
<defs>
<linearGradient id="paint0_linear_80_318" x1="221.491" y1="-4.16804e-06" x2="2.25682" y2="43.4002" gradientUnits="userSpaceOnUse">
<stop stop-color="#71FFDF"/>
<stop offset="1" stop-color="#0EA9CB"/>
</linearGradient>
<linearGradient id="paint1_linear_80_318" x1="221.491" y1="-4.16804e-06" x2="2.25682" y2="43.4002" gradientUnits="userSpaceOnUse">
<stop stop-color="#71FFDF"/>
<stop offset="1" stop-color="#0EA9CB"/>
</linearGradient>
<linearGradient id="paint2_linear_80_318" x1="221.491" y1="-4.16804e-06" x2="2.25682" y2="43.4002" gradientUnits="userSpaceOnUse">
<stop stop-color="#71FFDF"/>
<stop offset="1" stop-color="#0EA9CB"/>
</linearGradient>
<linearGradient id="paint3_linear_80_318" x1="221.491" y1="-4.16804e-06" x2="2.25682" y2="43.4002" gradientUnits="userSpaceOnUse">
<stop stop-color="#71FFDF"/>
<stop offset="1" stop-color="#0EA9CB"/>
</linearGradient>
<linearGradient id="paint4_linear_80_318" x1="221.491" y1="-4.16804e-06" x2="2.25682" y2="43.4002" gradientUnits="userSpaceOnUse">
<stop stop-color="#71FFDF"/>
<stop offset="1" stop-color="#0EA9CB"/>
</linearGradient>
<linearGradient id="paint5_linear_80_318" x1="221.491" y1="-4.16804e-06" x2="2.25682" y2="43.4002" gradientUnits="userSpaceOnUse">
<stop stop-color="#71FFDF"/>
<stop offset="1" stop-color="#0EA9CB"/>
</linearGradient>
<linearGradient id="paint6_linear_80_318" x1="221.491" y1="-4.16804e-06" x2="2.25682" y2="43.4002" gradientUnits="userSpaceOnUse">
<stop stop-color="#71FFDF"/>
<stop offset="1" stop-color="#0EA9CB"/>
</linearGradient>
<linearGradient id="paint7_linear_80_318" x1="221.491" y1="-4.16804e-06" x2="2.25682" y2="43.4002" gradientUnits="userSpaceOnUse">
<stop stop-color="#71FFDF"/>
<stop offset="1" stop-color="#0EA9CB"/>
</linearGradient>
<linearGradient id="paint8_linear_80_318" x1="221.491" y1="-4.16804e-06" x2="2.25682" y2="43.4002" gradientUnits="userSpaceOnUse">
<stop stop-color="#71FFDF"/>
<stop offset="1" stop-color="#0EA9CB"/>
</linearGradient>
<linearGradient id="paint9_linear_80_318" x1="221.491" y1="-4.16804e-06" x2="2.25682" y2="43.4002" gradientUnits="userSpaceOnUse">
<stop stop-color="#71FFDF"/>
<stop offset="1" stop-color="#0EA9CB"/>
</linearGradient>
<linearGradient id="paint10_linear_80_318" x1="221.491" y1="-4.16804e-06" x2="2.25682" y2="43.4002" gradientUnits="userSpaceOnUse">
<stop stop-color="#71FFDF"/>
<stop offset="1" stop-color="#0EA9CB"/>
</linearGradient>
<linearGradient id="paint11_linear_80_318" x1="221.491" y1="-4.16804e-06" x2="2.25682" y2="43.4002" gradientUnits="userSpaceOnUse">
<stop stop-color="#71FFDF"/>
<stop offset="1" stop-color="#0EA9CB"/>
</linearGradient>
<linearGradient id="paint12_linear_80_318" x1="221.491" y1="-4.16804e-06" x2="2.25682" y2="43.4002" gradientUnits="userSpaceOnUse">
<stop stop-color="#71FFDF"/>
<stop offset="1" stop-color="#0EA9CB"/>
</linearGradient>
<linearGradient id="paint13_linear_80_318" x1="221.491" y1="-4.16804e-06" x2="2.25682" y2="43.4002" gradientUnits="userSpaceOnUse">
<stop stop-color="#71FFDF"/>
<stop offset="1" stop-color="#0EA9CB"/>
</linearGradient>
<linearGradient id="paint14_linear_80_318" x1="221.491" y1="-4.16804e-06" x2="2.25682" y2="43.4002" gradientUnits="userSpaceOnUse">
<stop stop-color="#71FFDF"/>
<stop offset="1" stop-color="#0EA9CB"/>
</linearGradient>
<linearGradient id="paint15_linear_80_318" x1="221.491" y1="-4.16804e-06" x2="2.25682" y2="43.4002" gradientUnits="userSpaceOnUse">
<stop stop-color="#71FFDF"/>
<stop offset="1" stop-color="#0EA9CB"/>
</linearGradient>
</defs>
</svg>
