<svg width="214" height="17" viewBox="0 0 214 17" fill="none" xmlns="http://www.w3.org/2000/svg">
<path d="M1.72991 13V3.2H5.40491C6.10957 3.2 6.73491 3.32367 7.28091 3.571C7.82691 3.81367 8.25391 4.166 8.56191 4.628C8.87457 5.09 9.03091 5.64533 9.03091 6.294C9.03091 6.952 8.88624 7.50967 8.59691 7.967C8.31224 8.42433 7.89691 8.77433 7.35091 9.017C6.80491 9.255 6.14224 9.374 5.36291 9.374H3.54991V13H1.72991ZM3.54991 7.827H5.35591C5.93924 7.827 6.39424 7.70567 6.72091 7.463C7.04757 7.22033 7.21091 6.84233 7.21091 6.329C7.21091 5.81567 7.04291 5.43067 6.70691 5.174C6.37557 4.91267 5.92991 4.782 5.36991 4.782H3.54991V7.827ZM13.5452 13.21C12.7986 13.21 12.1359 13.042 11.5572 12.706C10.9832 12.3653 10.5329 11.915 10.2062 11.355C9.87958 10.7903 9.71625 10.172 9.71625 9.5C9.71625 9.00533 9.80958 8.534 9.99625 8.086C10.1829 7.638 10.4466 7.24367 10.7872 6.903C11.1326 6.55767 11.5386 6.287 12.0052 6.091C12.4719 5.89033 12.9852 5.79 13.5452 5.79C14.2872 5.79 14.9452 5.958 15.5192 6.294C16.0979 6.63 16.5506 7.08033 16.8772 7.645C17.2086 8.20967 17.3743 8.828 17.3743 9.5C17.3743 9.99467 17.2786 10.466 17.0873 10.914C16.9006 11.3573 16.6369 11.7517 16.2962 12.097C15.9556 12.4423 15.5519 12.7153 15.0852 12.916C14.6186 13.112 14.1052 13.21 13.5452 13.21ZM13.5452 11.642C13.9372 11.642 14.2872 11.5557 14.5952 11.383C14.9079 11.2057 15.1529 10.9583 15.3302 10.641C15.5076 10.319 15.5962 9.93867 15.5962 9.5C15.5962 9.06133 15.5076 8.681 15.3302 8.359C15.1529 8.037 14.9102 7.78967 14.6022 7.617C14.2942 7.44433 13.9419 7.358 13.5452 7.358C13.1486 7.358 12.7939 7.44433 12.4812 7.617C12.1732 7.78967 11.9306 8.037 11.7532 8.359C11.5806 8.681 11.4942 9.06133 11.4942 9.5C11.4942 9.93867 11.5829 10.319 11.7602 10.641C11.9376 10.9583 12.1802 11.2057 12.4882 11.383C12.7962 11.5557 13.1486 11.642 13.5452 11.642ZM20.0828 13L17.9198 6H19.6838L21.0558 10.935L22.5818 6H24.2898L25.7318 10.935L27.1178 6H28.8048L26.6418 13H24.8218L23.3938 8.24L21.9028 13H20.0828ZM33.1711 13.21C32.4104 13.21 31.7431 13.056 31.1691 12.748C30.5951 12.4353 30.1471 12.0013 29.8251 11.446C29.5077 10.8907 29.3491 10.2443 29.3491 9.507C29.3491 8.96567 29.4401 8.46867 29.6221 8.016C29.8087 7.56333 30.0701 7.17133 30.4061 6.84C30.7467 6.504 31.1434 6.245 31.5961 6.063C32.0534 5.881 32.5527 5.79 33.0941 5.79C33.6821 5.79 34.2071 5.895 34.6691 6.105C35.1311 6.31033 35.5137 6.602 35.8171 6.98C36.1251 7.35333 36.3397 7.792 36.4611 8.296C36.5871 8.79533 36.6034 9.34133 36.5101 9.934H31.0361C31.0314 10.3027 31.1177 10.6247 31.2951 10.9C31.4771 11.1753 31.7337 11.3923 32.0651 11.551C32.4011 11.705 32.7954 11.782 33.2481 11.782C33.6494 11.782 34.0344 11.7237 34.4031 11.607C34.7717 11.4903 35.1147 11.3177 35.4321 11.089L36.0621 12.342C35.8427 12.5193 35.5697 12.6733 35.2431 12.804C34.9164 12.9347 34.5711 13.035 34.2071 13.105C33.8477 13.175 33.5024 13.21 33.1711 13.21ZM31.1411 8.66H34.7741C34.7601 8.18867 34.6037 7.82 34.3051 7.554C34.0064 7.28333 33.5887 7.148 33.0521 7.148C32.5201 7.148 32.0814 7.28333 31.7361 7.554C31.3907 7.82 31.1924 8.18867 31.1411 8.66ZM38.0445 13V6H39.8365V6.917C40.0792 6.50633 40.3825 6.21467 40.7465 6.042C41.1152 5.86933 41.5118 5.783 41.9365 5.783C42.0858 5.783 42.2235 5.79 42.3495 5.804C42.4755 5.818 42.5968 5.839 42.7135 5.867L42.4895 7.715C42.3448 7.66367 42.1932 7.62633 42.0345 7.603C41.8805 7.575 41.7265 7.561 41.5725 7.561C41.0685 7.561 40.6532 7.71267 40.3265 8.016C39.9998 8.31467 39.8365 8.73467 39.8365 9.276V13H38.0445ZM47.048 13.21C46.2873 13.21 45.62 13.056 45.046 12.748C44.472 12.4353 44.024 12.0013 43.702 11.446C43.3847 10.8907 43.226 10.2443 43.226 9.507C43.226 8.96567 43.317 8.46867 43.499 8.016C43.6857 7.56333 43.947 7.17133 44.283 6.84C44.6237 6.504 45.0203 6.245 45.473 6.063C45.9303 5.881 46.4297 5.79 46.971 5.79C47.559 5.79 48.084 5.895 48.546 6.105C49.008 6.31033 49.3907 6.602 49.694 6.98C50.002 7.35333 50.2167 7.792 50.338 8.296C50.464 8.79533 50.4803 9.34133 50.387 9.934H44.913C44.9083 10.3027 44.9947 10.6247 45.172 10.9C45.354 11.1753 45.6107 11.3923 45.942 11.551C46.278 11.705 46.6723 11.782 47.125 11.782C47.5263 11.782 47.9113 11.7237 48.28 11.607C48.6487 11.4903 48.9917 11.3177 49.309 11.089L49.939 12.342C49.7197 12.5193 49.4467 12.6733 49.12 12.804C48.7933 12.9347 48.448 13.035 48.084 13.105C47.7247 13.175 47.3793 13.21 47.048 13.21ZM45.018 8.66H48.651C48.637 8.18867 48.4807 7.82 48.182 7.554C47.8833 7.28333 47.4657 7.148 46.929 7.148C46.397 7.148 45.9583 7.28333 45.613 7.554C45.2677 7.82 45.0693 8.18867 45.018 8.66ZM54.9018 13.21C54.2205 13.21 53.6161 13.0513 53.0888 12.734C52.5615 12.4167 52.1485 11.978 51.8498 11.418C51.5511 10.858 51.4018 10.2187 51.4018 9.5C51.4018 8.982 51.4858 8.499 51.6538 8.051C51.8265 7.59833 52.0691 7.204 52.3818 6.868C52.6991 6.52733 53.0725 6.26367 53.5018 6.077C53.9311 5.88567 54.4071 5.79 54.9298 5.79C55.5318 5.79 56.0591 5.91133 56.5118 6.154C56.9645 6.392 57.3495 6.73033 57.6668 7.169L57.2748 7.575V2.92H59.0668V13H57.4848V11.271L57.7368 11.677C57.4988 12.1203 57.1441 12.4867 56.6728 12.776C56.2015 13.0653 55.6111 13.21 54.9018 13.21ZM55.2308 11.642C55.6228 11.642 55.9728 11.5557 56.2808 11.383C56.5935 11.2057 56.8385 10.9583 57.0158 10.641C57.1931 10.319 57.2818 9.93867 57.2818 9.5C57.2818 9.06133 57.1931 8.681 57.0158 8.359C56.8385 8.037 56.5958 7.78967 56.2878 7.617C55.9798 7.44433 55.6275 7.358 55.2308 7.358C54.8341 7.358 54.4795 7.44433 54.1668 7.617C53.8588 7.78967 53.6161 8.037 53.4388 8.359C53.2661 8.681 53.1798 9.06133 53.1798 9.5C53.1798 9.93867 53.2685 10.319 53.4458 10.641C53.6231 10.9583 53.8658 11.2057 54.1738 11.383C54.4818 11.5557 54.8341 11.642 55.2308 11.642ZM68.6646 13.21C68.2072 13.21 67.7942 13.1423 67.4256 13.007C67.0569 12.8717 66.7372 12.685 66.4666 12.447C66.1959 12.209 65.9836 11.9337 65.8296 11.621L66.0816 11.222V13H64.4996V2.92H66.2846V7.603L65.8996 7.197C66.2122 6.75833 66.5949 6.41533 67.0476 6.168C67.5049 5.916 68.0346 5.79 68.6366 5.79C69.3272 5.79 69.9386 5.95567 70.4706 6.287C71.0026 6.61367 71.4179 7.05933 71.7166 7.624C72.0152 8.184 72.1646 8.80933 72.1646 9.5C72.1646 10.0367 72.0782 10.5337 71.9056 10.991C71.7329 11.4437 71.4902 11.8357 71.1776 12.167C70.8649 12.4983 70.4939 12.755 70.0646 12.937C69.6399 13.119 69.1732 13.21 68.6646 13.21ZM68.3356 11.642C68.7276 11.642 69.0776 11.5557 69.3856 11.383C69.6982 11.2057 69.9432 10.9583 70.1206 10.641C70.2979 10.319 70.3866 9.93867 70.3866 9.5C70.3866 9.06133 70.2979 8.681 70.1206 8.359C69.9432 8.037 69.7006 7.78967 69.3926 7.617C69.0846 7.44433 68.7322 7.358 68.3356 7.358C67.9389 7.358 67.5842 7.44433 67.2716 7.617C66.9636 7.78967 66.7209 8.037 66.5436 8.359C66.3709 8.681 66.2846 9.06133 66.2846 9.5C66.2846 9.93867 66.3732 10.319 66.5506 10.641C66.7279 10.9583 66.9706 11.2057 67.2786 11.383C67.5866 11.5557 67.9389 11.642 68.3356 11.642ZM74.3267 16.136C74.0514 16.136 73.7807 16.1057 73.5147 16.045C73.2487 15.9843 72.992 15.8863 72.7447 15.751L73.1437 14.232C73.2884 14.3207 73.4494 14.3883 73.6267 14.435C73.804 14.4817 73.965 14.505 74.1097 14.505C74.4084 14.505 74.651 14.435 74.8377 14.295C75.0244 14.1597 75.1667 13.9427 75.2647 13.644L75.4537 13.084L72.7097 6H74.6627L76.4687 11.215L78.2257 6H80.1227L77.1407 13.903C76.9167 14.4723 76.6624 14.918 76.3777 15.24C76.093 15.5667 75.778 15.7977 75.4327 15.933C75.092 16.0683 74.7234 16.136 74.3267 16.136Z" fill="#38363E"/>
<path d="M206.12 2.25515C205.704 2.39373 205.057 2.71709 204.688 2.97116C204.318 3.22522 203.856 3.64097 203.648 3.89504C203.452 4.14911 203.175 4.54176 203.048 4.76118C202.909 4.9806 202.69 5.55803 202.551 6.03152C202.413 6.50501 202.332 6.96695 202.367 7.04779C202.413 7.14017 202.69 7.18637 203.163 7.18637C203.591 7.18637 203.949 7.12863 204.03 7.04779C204.11 6.96695 204.168 6.81682 204.168 6.72443C204.168 6.63204 204.295 6.29713 204.434 5.97377C204.584 5.66196 204.884 5.18847 205.104 4.94595C205.323 4.69189 205.808 4.34543 206.189 4.16066C206.743 3.90659 207.044 3.8373 207.69 3.8373C208.152 3.8373 208.753 3.91814 209.076 4.03362C209.48 4.16065 209.85 4.42627 210.289 4.86511C210.716 5.29241 211.005 5.70816 211.143 6.08926C211.247 6.41262 211.398 6.78217 211.455 6.9323C211.548 7.16327 211.64 7.18637 212.31 7.18637C212.922 7.18637 213.072 7.15172 213.13 6.99004C213.176 6.87456 213.13 6.48191 213.014 6.1239C212.91 5.75435 212.703 5.21157 212.552 4.91131C212.402 4.5995 212.021 4.07981 211.721 3.73336C211.409 3.39845 210.924 2.9827 210.635 2.80948C210.347 2.6478 209.781 2.39373 209.365 2.25515C208.834 2.07037 208.36 1.98953 207.748 2.00108C207.182 2.00108 206.616 2.09347 206.12 2.25515ZM92.4015 4.64569L91.3391 7.07088L88.5097 7.12863V8.86091C89.9879 8.9071 90.4152 8.95329 90.4152 9.01104C90.4152 9.05723 89.9994 10.0273 89.4913 11.1706C88.9716 12.3139 88.5328 13.3648 88.5097 13.515C88.4519 13.7575 88.475 13.769 89.3758 13.769C89.9917 13.769 90.3266 13.7228 90.3805 13.6304C90.4383 13.5496 91.3506 11.494 92.4362 9.06878C93.5102 6.64359 94.4572 4.65724 94.5149 4.65724C94.5842 4.65724 95.5196 6.64359 96.5936 9.06878C97.6792 11.494 98.5915 13.5496 98.6493 13.6304C98.7032 13.7228 99.0381 13.769 99.654 13.769C100.555 13.769 100.578 13.7575 100.52 13.515C100.497 13.3648 100.058 12.3139 99.5385 11.1706C99.0304 10.0273 98.6146 9.05723 98.6146 9.01104C98.6146 8.95329 99.0419 8.9071 99.5732 8.89555L100.52 8.86091V7.12863L97.6907 7.07088L95.5543 2.2205H93.4524L92.4015 4.64569ZM202.378 8.94174C202.343 9.02258 202.401 9.40369 202.505 9.78479C202.609 10.1659 202.863 10.778 203.06 11.1591C203.256 11.5286 203.66 12.0829 203.96 12.3717C204.249 12.6604 204.792 13.0646 205.173 13.2724C205.542 13.4688 206.166 13.7113 206.547 13.8152C206.928 13.9192 207.494 14 207.818 14C208.129 14 208.811 13.873 209.319 13.7228C209.919 13.5381 210.485 13.2609 210.936 12.9375C211.317 12.6604 211.848 12.1176 212.125 11.748C212.391 11.3669 212.726 10.7664 212.853 10.42C212.98 10.0735 213.095 9.57691 213.107 9.32285L213.13 8.86091L211.455 8.80316C211.247 9.56537 211.074 10.0158 210.936 10.3045C210.785 10.5932 210.485 10.9974 210.254 11.1937C210.023 11.4016 209.619 11.6903 209.342 11.8289C209.019 11.9906 208.568 12.0945 207.991 12.1291C207.286 12.1638 206.998 12.1291 206.432 11.9097C205.981 11.748 205.554 11.4709 205.242 11.1475C204.977 10.8703 204.665 10.4777 204.561 10.2698C204.457 10.0735 204.307 9.6693 204.237 9.38059L204.099 8.86091C202.678 8.80316 202.424 8.83781 202.378 8.94174ZM104.862 7.99477V13.769H112.369V12.0368H106.595V2.2205H104.862V7.99477ZM115.984 2.37063C115.949 2.46302 115.937 2.84412 115.961 3.21368L116.007 3.89504H124.668V2.27824C116.804 2.2205 116.041 2.2436 115.984 2.37063ZM128.883 3.07509V3.95278C134.45 4.01052 134.623 4.02207 135.085 4.27614C135.362 4.41472 135.697 4.70344 135.847 4.91131C135.997 5.10763 136.182 5.46564 136.251 5.68506C136.332 5.90448 136.39 6.26249 136.39 6.47036C136.39 6.66669 136.309 7.03624 136.205 7.27876C136.113 7.50973 135.882 7.85618 135.72 8.02941C135.547 8.21419 135.247 8.44516 135.062 8.5491C134.773 8.71077 134.219 8.75697 131.828 8.80316L128.941 8.86091L128.883 13.769H130.616V10.6509C134.611 10.5816 134.9 10.547 135.524 10.3045C135.997 10.1197 136.401 9.84253 136.852 9.39214C137.21 9.03413 137.626 8.49135 137.776 8.16799C138.018 7.67141 138.053 7.42889 138.064 6.43571C138.064 5.4079 138.03 5.20002 137.741 4.61105C137.568 4.25304 137.175 3.71026 136.875 3.42155C136.575 3.13284 136.043 2.75173 135.697 2.59006C135.062 2.27824 135.039 2.27824 131.978 2.2436L128.895 2.20895L128.883 3.07509ZM142.384 4.63414V7.05934L140.709 7.11708V8.84936L142.384 8.9071V13.7575H144.116V8.9071L148.677 8.84936V7.11708L144.116 7.05934V2.20895H142.384V4.63414ZM150.468 7.98322V13.7575H152.2V2.20895H150.468V7.98322ZM164.672 3.07509V3.94123C169.511 3.94123 170.562 3.98743 170.562 4.05672C170.562 4.12601 170.065 4.79582 169.465 5.55803C168.864 6.32023 168.391 7.00159 168.425 7.05934C168.46 7.12863 168.911 7.18637 169.442 7.18637C170.285 7.18637 170.423 7.15172 170.643 6.92075C170.781 6.78217 171.44 5.96222 172.109 5.09609L173.334 3.53703V2.20895H164.672V3.07509ZM176.96 2.37063C176.914 2.45147 176.902 2.83257 176.925 3.21368L176.971 3.88349H185.633V2.2667C177.768 2.2205 177.018 2.2436 176.96 2.37063ZM189.86 3.07509L189.848 3.94123C193.925 3.94123 195.287 3.99898 195.507 4.05672C195.726 4.11446 196.096 4.28769 196.315 4.42627C196.558 4.58795 196.846 4.94595 197.043 5.32706C197.216 5.68506 197.355 6.1239 197.355 6.30868C197.355 6.50501 197.308 6.85146 197.239 7.09398C197.181 7.3365 196.962 7.7176 196.754 7.94857C196.546 8.17954 196.223 8.44516 196.026 8.5491C195.749 8.69923 195.16 8.74542 192.793 8.79161L189.906 8.84936L189.848 13.7575H191.58V10.6394C194.537 10.6047 195.484 10.5816 195.588 10.5816C195.726 10.5816 195.992 11.0436 196.488 12.1407L197.193 13.6997C198.833 13.7575 199.087 13.7228 199.087 13.6189C199.087 13.5381 198.729 12.6604 198.278 11.6556L197.47 9.83098C198.221 8.98794 198.579 8.45671 198.74 8.0987C198.983 7.56747 199.029 7.30185 199.029 6.36642C199.029 5.41944 198.994 5.18847 198.729 4.63414C198.556 4.28769 198.163 3.75646 197.863 3.44465C197.551 3.13284 197.008 2.75173 196.662 2.57851C196.038 2.27824 196.015 2.2667 192.943 2.23205L189.86 2.1974V3.07509ZM116.007 7.14017C115.949 7.18637 115.914 7.57902 115.926 8.00631C115.937 8.59529 115.995 8.81471 116.122 8.86091C116.215 8.89555 118.12 8.91865 120.361 8.91865C122.601 8.91865 124.506 8.87245 124.587 8.82626C124.68 8.76852 124.714 8.49135 124.703 7.93702L124.668 7.12863C118.028 7.08243 116.064 7.10553 116.007 7.14017ZM176.971 7.22101C176.925 7.3134 176.914 7.7176 176.937 8.1218L176.983 8.86091C184.397 8.9071 185.448 8.87245 185.563 8.76852C185.644 8.68768 185.714 8.37587 185.702 8.01786C185.702 7.68295 185.679 7.3365 185.644 7.24411C185.598 7.09398 185.009 7.07088 181.314 7.07088C177.826 7.07088 177.018 7.09398 176.971 7.22101ZM166.924 8.884C166.855 8.94174 166.185 9.75014 165.446 10.7087L164.095 12.4409L164.106 13.769H173.345V12.0368C168.241 12.0368 166.762 12.0137 166.762 11.979C166.762 11.9444 167.259 11.2976 167.86 10.5354C168.506 9.7155 168.934 9.08033 168.899 8.97639C168.853 8.83781 168.633 8.80316 167.94 8.80316C167.455 8.80316 166.993 8.83781 166.924 8.884ZM115.984 12.1869C115.949 12.2793 115.937 12.6604 115.961 13.0299L116.007 13.7113H124.668V12.0945C116.804 12.0368 116.053 12.0598 115.984 12.1869ZM176.96 12.1869C176.925 12.2793 176.914 12.6604 176.937 13.0299L176.983 13.7113H185.644V12.0945C177.78 12.0368 177.029 12.0598 176.96 12.1869Z" fill="#38363E"/>
</svg>
